<svg width="200" height="48" viewBox="0 0 200 48" fill="none" xmlns="http://www.w3.org/2000/svg">
<path d="M59.8 33.288C59.272 33.288 58.736 33.16 58.192 32.904C57.664 32.632 57.168 32.24 56.704 31.728H56.608L56.32 33H53.56V16.176H57.088V20.304L56.992 22.128C57.456 21.712 57.96 21.392 58.504 21.168C59.048 20.928 59.592 20.808 60.136 20.808C61.096 20.808 61.928 21.056 62.632 21.552C63.336 22.048 63.872 22.752 64.24 23.664C64.624 24.56 64.816 25.616 64.816 26.832C64.816 28.192 64.576 29.36 64.096 30.336C63.616 31.296 62.992 32.032 62.224 32.544C61.472 33.04 60.664 33.288 59.8 33.288ZM58.984 30.408C59.592 30.408 60.112 30.128 60.544 29.568C60.976 29.008 61.192 28.12 61.192 26.904C61.192 24.76 60.504 23.688 59.128 23.688C58.424 23.688 57.744 24.048 57.088 24.768V29.64C57.408 29.928 57.728 30.128 58.048 30.24C58.368 30.352 58.68 30.408 58.984 30.408ZM70.8938 33.288C69.5978 33.288 68.6538 32.864 68.0618 32.016C67.4858 31.152 67.1978 29.976 67.1978 28.488V21.096H70.7258V28.032C70.7258 28.88 70.8458 29.472 71.0858 29.808C71.3258 30.128 71.7018 30.288 72.2138 30.288C72.6618 30.288 73.0378 30.184 73.3418 29.976C73.6458 29.768 73.9738 29.432 74.3258 28.968V21.096H77.8538V33H74.9738L74.7098 31.344H74.6378C74.1418 31.936 73.5978 32.408 73.0058 32.76C72.4138 33.112 71.7098 33.288 70.8938 33.288ZM86.1424 33.288C85.0384 33.288 84.0384 33.048 83.1424 32.568C82.2624 32.072 81.5584 31.36 81.0304 30.432C80.5184 29.488 80.2624 28.36 80.2624 27.048C80.2624 25.72 80.5504 24.592 81.1264 23.664C81.7024 22.736 82.4624 22.032 83.4064 21.552C84.3504 21.056 85.3664 20.808 86.4544 20.808C87.1904 20.808 87.8384 20.928 88.3984 21.168C88.9744 21.408 89.4864 21.712 89.9344 22.08L88.2784 24.36C87.7184 23.896 87.1824 23.664 86.6704 23.664C85.8224 23.664 85.1424 23.968 84.6304 24.576C84.1344 25.184 83.8864 26.008 83.8864 27.048C83.8864 28.072 84.1344 28.896 84.6304 29.52C85.1424 30.128 85.7824 30.432 86.5504 30.432C86.9344 30.432 87.3104 30.352 87.6784 30.192C88.0464 30.016 88.3824 29.808 88.6864 29.568L90.0784 31.872C89.4864 32.384 88.8464 32.752 88.1584 32.976C87.4704 33.184 86.7984 33.288 86.1424 33.288ZM92.1616 33V16.176H95.6896V20.304L95.5216 22.44C95.9696 22.04 96.4896 21.672 97.0816 21.336C97.6896 20.984 98.3936 20.808 99.1936 20.808C100.49 20.808 101.426 21.24 102.002 22.104C102.594 22.952 102.89 24.12 102.89 25.608V33H99.3616V26.064C99.3616 25.2 99.2416 24.608 99.0016 24.288C98.7776 23.968 98.4096 23.808 97.8976 23.808C97.4496 23.808 97.0656 23.912 96.7456 24.12C96.4256 24.312 96.0736 24.592 95.6896 24.96V33H92.1616ZM105.873 33V21.096H109.401V33H105.873ZM107.625 19.344C107.033 19.344 106.553 19.176 106.185 18.84C105.817 18.504 105.633 18.056 105.633 17.496C105.633 16.936 105.817 16.488 106.185 16.152C106.553 15.816 107.033 15.648 107.625 15.648C108.217 15.648 108.697 15.816 109.065 16.152C109.433 16.488 109.617 16.936 109.617 17.496C109.617 18.056 109.433 18.504 109.065 18.84C108.697 19.176 108.217 19.344 107.625 19.344ZM116.753 33.288C115.281 33.288 114.097 32.736 113.201 31.632C112.321 30.512 111.881 28.984 111.881 27.048C111.881 25.752 112.113 24.64 112.577 23.712C113.057 22.768 113.673 22.048 114.425 21.552C115.193 21.056 115.993 20.808 116.825 20.808C117.481 20.808 118.033 20.92 118.481 21.144C118.929 21.368 119.353 21.672 119.753 22.056L119.609 20.232V16.176H123.137V33H120.257L120.017 31.824H119.921C119.505 32.24 119.017 32.592 118.457 32.88C117.897 33.152 117.329 33.288 116.753 33.288ZM117.665 30.408C118.049 30.408 118.393 30.328 118.697 30.168C119.017 30.008 119.321 29.728 119.609 29.328V24.456C119.305 24.168 118.977 23.968 118.625 23.856C118.289 23.744 117.961 23.688 117.641 23.688C117.081 23.688 116.585 23.96 116.153 24.504C115.721 25.032 115.505 25.864 115.505 27C115.505 28.168 115.689 29.032 116.057 29.592C116.441 30.136 116.977 30.408 117.665 30.408ZM129.263 33.288C128.175 33.288 127.311 32.944 126.671 32.256C126.031 31.552 125.711 30.696 125.711 29.688C125.711 28.44 126.239 27.464 127.295 26.76C128.351 26.056 130.055 25.584 132.407 25.344C132.375 24.816 132.215 24.4 131.927 24.096C131.655 23.776 131.191 23.616 130.535 23.616C130.039 23.616 129.535 23.712 129.023 23.904C128.511 24.096 127.967 24.36 127.391 24.696L126.119 22.368C126.871 21.904 127.671 21.528 128.519 21.24C129.383 20.952 130.279 20.808 131.207 20.808C132.727 20.808 133.895 21.248 134.711 22.128C135.527 23.008 135.935 24.36 135.935 26.184V33H133.055L132.815 31.776H132.719C132.223 32.224 131.687 32.592 131.111 32.88C130.551 33.152 129.935 33.288 129.263 33.288ZM130.463 30.552C130.863 30.552 131.207 30.464 131.495 30.288C131.799 30.096 132.103 29.848 132.407 29.544V27.456C131.159 27.616 130.295 27.872 129.815 28.224C129.335 28.56 129.095 28.96 129.095 29.424C129.095 29.808 129.215 30.096 129.455 30.288C129.711 30.464 130.047 30.552 130.463 30.552Z" fill="white"/>
<path d="M32.4 13.3118H14.6323C13.1785 13.3118 12 14.4882 12 15.9394V28.7488C12 30.1999 13.1785 31.3763 14.6323 31.3763H32.4C33.8538 31.3763 35.0323 30.1999 35.0323 28.7488V15.9394C35.0323 14.4882 33.8538 13.3118 32.4 13.3118Z" fill="#FF6B6B" stroke="white"/>
<path d="M12 15.9613C12 14.4975 13.1779 13.3118 14.6323 13.3118H32.4C33.8543 13.3118 35.0323 14.4975 35.0323 15.9613V19.9355H12V15.9613Z" fill="#E84D3D" stroke="white"/>
<path d="M29.6813 15.7204H17.2004C16.6562 15.7204 16.2151 16.1585 16.2151 16.6989C16.2151 17.2393 16.6562 17.6774 17.2004 17.6774H29.6813C30.2255 17.6774 30.6667 17.2393 30.6667 16.6989C30.6667 16.1585 30.2255 15.7204 29.6813 15.7204Z" fill="white"/>
<path d="M36.3369 16.6237H35.6846C35.3243 16.6237 35.0323 16.9202 35.0323 17.286V24.2409C35.0323 24.6067 35.3243 24.9032 35.6846 24.9032H36.3369C36.6972 24.9032 36.9892 24.6067 36.9892 24.2409V17.286C36.9892 16.9202 36.6972 16.6237 36.3369 16.6237Z" fill="#3B6EF9" stroke="white"/>
<path d="M36.9892 16.6237H41.6559V20.5376H36.9892" fill="#3B6EF9"/>
<path d="M36.9892 16.6237H41.6559V20.5376H36.9892" stroke="white"/>
<path d="M19.2258 29.4194C21.3874 29.4194 23.1398 27.667 23.1398 25.5054C23.1398 23.3437 21.3874 21.5914 19.2258 21.5914C17.0642 21.5914 15.3118 23.3437 15.3118 25.5054C15.3118 27.667 17.0642 29.4194 19.2258 29.4194Z" fill="white" stroke="white"/>
<path d="M27.8064 29.4194C29.9681 29.4194 31.7204 27.667 31.7204 25.5054C31.7204 23.3437 29.9681 21.5914 27.8064 21.5914C25.6448 21.5914 23.8925 23.3437 23.8925 25.5054C23.8925 27.667 25.6448 29.4194 27.8064 29.4194Z" fill="white" stroke="white"/>
<path d="M20.2043 27.1613C21.3267 27.1613 22.2366 26.2851 22.2366 25.2043C22.2366 24.1235 21.3267 23.2473 20.2043 23.2473C19.0819 23.2473 18.172 24.1235 18.172 25.2043C18.172 26.2851 19.0819 27.1613 20.2043 27.1613Z" fill="#1A1A1A"/>
<path d="M28.7097 27.1613C29.7905 27.1613 30.6667 26.2851 30.6667 25.2043C30.6667 24.1235 29.7905 23.2473 28.7097 23.2473C27.6289 23.2473 26.7527 24.1235 26.7527 25.2043C26.7527 26.2851 27.6289 27.1613 28.7097 27.1613Z" fill="#1A1A1A"/>
<path d="M20.8817 25.2043C21.2143 25.2043 21.4839 24.901 21.4839 24.5269C21.4839 24.1527 21.2143 23.8495 20.8817 23.8495C20.5491 23.8495 20.2796 24.1527 20.2796 24.5269C20.2796 24.901 20.5491 25.2043 20.8817 25.2043Z" fill="white"/>
<path d="M29.3871 25.2043C29.7612 25.2043 30.0645 24.901 30.0645 24.5269C30.0645 24.1527 29.7612 23.8495 29.3871 23.8495C29.013 23.8495 28.7097 24.1527 28.7097 24.5269C28.7097 24.901 29.013 25.2043 29.3871 25.2043Z" fill="white"/>
<path d="M19.5269 32.7011C19.5269 31.9694 18.954 31.3763 18.2473 31.3763C17.5406 31.3763 16.9677 31.9694 16.9677 32.7011V36.6753C16.9677 37.4069 17.5406 38 18.2473 38C18.954 38 19.5269 37.4069 19.5269 36.6753V32.7011Z" fill="white"/>
<path d="M30.0645 32.7011C30.0645 31.9694 29.4916 31.3763 28.7849 31.3763C28.0783 31.3763 27.5054 31.9694 27.5054 32.7011V36.6753C27.5054 37.4069 28.0783 38 28.7849 38C29.4916 38 30.0645 37.4069 30.0645 36.6753V32.7011Z" fill="white"/>
<path d="M28.28 10.1372L21.1188 11.1437C20.5795 11.2195 20.2037 11.7181 20.2795 12.2575L20.8285 16.1636C20.9043 16.7029 21.4029 17.0787 21.9422 17.0029L29.1035 15.9964C29.6428 15.9206 30.0186 15.422 29.9428 14.8827L29.3938 10.9765C29.318 10.4372 28.8193 10.0614 28.28 10.1372Z" fill="#FFF8F0" stroke="white" stroke-width="0.5"/>
<path d="M20.8848 11.8405L25.1569 13.8956L28.697 10.7425" stroke="white" stroke-width="0.5" stroke-linecap="round"/>
</svg>
